<svg xmlns="http://www.w3.org/2000/svg" width="30" height="30" viewBox="0 0 30 30"><defs><style>.a{fill:#1661bf;}</style></defs><path class="a" d="M15,0A15,15,0,1,0,30,15,15.017,15.017,0,0,0,15,0Zm0,28.7A13.7,13.7,0,1,1,28.7,15,13.711,13.711,0,0,1,15,28.7Z"/><path class="a" d="M100.384,146.192a2.192,2.192,0,1,0-2.192,2.192A2.195,2.195,0,0,0,100.384,146.192Zm-2.922,0a.731.731,0,1,1,.731.731A.732.732,0,0,1,97.461,146.192Z" transform="translate(-88.315 -132.473)"/><path class="a" d="M226.192,144a2.192,2.192,0,1,0,2.192,2.192A2.195,2.195,0,0,0,226.192,144Zm0,2.922a.731.731,0,1,1,.731-.731A.731.731,0,0,1,226.192,146.922Z" transform="translate(-206.069 -132.473)"/><path class="a" d="M208.725,82.92a.732.732,0,0,0,.326-.077l2.922-1.461a.731.731,0,1,0-.654-1.307L208.4,81.537a.73.73,0,0,0,.328,1.384Z" transform="translate(-191.343 -73.551)"/><path class="a" d="M112.4,81.377l2.922,1.461a.731.731,0,0,0,.654-1.308l-2.922-1.461a.731.731,0,0,0-.654,1.308Z" transform="translate(-103.032 -73.545)"/><path class="a" d="M111.309,224a9.558,9.558,0,0,0-7.12,3.166.731.731,0,0,0,1.089.975,8.128,8.128,0,0,1,12.062,0,.731.731,0,0,0,1.089-.975A9.559,9.559,0,0,0,111.309,224Z" transform="translate(-96.309 -206.069)"/></svg>